<?xml version="1.0" encoding="iso-8859-1"?>
<!-- Generator: Adobe Illustrator 19.0.0, SVG Export Plug-In . SVG Version: 6.00 Build 0)  -->
<svg version="1.1" id="Layer_1" xmlns="http://www.w3.org/2000/svg" xmlns:xlink="http://www.w3.org/1999/xlink" x="0px" y="0px"
	 viewBox="0 0 512 512" style="enable-background:new 0 0 512 512;" xml:space="preserve">
<path style="fill:#F7862D;" d="M446.705,351.862c30.051-2.714,54.728-29.699,54.948-59.619c0.002-0.194,0.002-0.389,0.002-0.583
	c0.06-75-109.978-138.363-245.657-139.636C120.321,153.298,10.282,216.66,10.342,291.66c0,0.194,0,0.389,0.002,0.583
	c0.222,29.918,24.899,56.903,54.948,59.619C192.2,362.713,319.799,362.713,446.705,351.862z"/>
<g>
	<path style="fill:#EFEFEF;" d="M284.472,153.214l-16.581,75.207c-3.941,13.571-19.849,13.571-23.78,0l-16.591-75.207
		c9.34-0.693,18.846-1.096,28.475-1.189C265.627,152.117,275.132,152.521,284.472,153.214z"/>
	<path style="fill:#EFEFEF;" d="M173.839,160.754l-17.656,80.079c-3.941,13.571-19.849,13.571-23.78,0l-14.057-63.726
		C135.434,170.425,154.052,164.902,173.839,160.754z"/>
	<path style="fill:#EFEFEF;" d="M393.657,177.107L379.6,240.833c-3.941,13.571-19.849,13.571-23.78,0l-17.667-80.079
		C357.942,164.902,376.57,170.425,393.657,177.107z"/>
</g>
<g>
	<path style="fill:#231F20;" d="M434.857,185.211c-48.08-27.44-111.565-42.899-178.76-43.53c-0.065-0.001-0.129-0.001-0.194,0
		c-67.195,0.631-130.68,16.09-178.76,43.53C27.365,213.62-0.032,251.428,0,291.66l0.002,0.661
		c0.262,35.329,29.134,66.66,64.411,69.847c63.564,5.434,127.575,8.152,191.587,8.152s128.023-2.717,191.586-8.152
		c0.018-0.001,0.033-0.003,0.05-0.004c35.229-3.182,64.1-34.513,64.361-69.812l0.003-0.684
		C512.032,251.428,484.634,213.62,434.857,185.211z M240.327,162.81h31.358c0.026,0.001,0.053,0.002,0.079,0.003l-13.886,62.985
		c-0.579,1.783-1.447,2.456-1.879,2.456c-0.43,0-1.295-0.671-1.871-2.452l-13.895-62.988
		C240.264,162.813,240.295,162.812,240.327,162.81z M491.311,292.168c-0.181,24.554-21.023,47.169-45.517,49.391
		c-125.95,10.768-253.667,10.766-379.568,0.001c-24.502-2.214-45.354-24.833-45.537-49.424l-0.002-0.484
		c-0.026-32.488,23.665-63.908,66.71-88.474c7.444-4.248,15.3-8.183,23.504-11.807l11.402,51.689
		c0.048,0.218,0.103,0.434,0.166,0.649c3.103,10.715,11.665,17.641,21.813,17.645c0.003,0,0.004,0,0.007,0
		c10.148,0,18.715-6.923,21.827-17.638c0.063-0.217,0.119-0.436,0.169-0.657l16.212-73.531c11.984-2.286,24.306-4.041,36.876-5.243
		l14.64,66.363c0.048,0.218,0.103,0.434,0.165,0.649c3.103,10.715,11.665,17.641,21.812,17.644c0.003,0,0.005,0,0.008,0
		c10.147,0,18.714-6.922,21.827-17.637c0.063-0.217,0.119-0.436,0.168-0.658l14.631-66.362c12.569,1.202,24.89,2.957,36.873,5.242
		l16.223,73.534c0.049,0.218,0.104,0.434,0.165,0.649c3.103,10.715,11.665,17.641,21.813,17.645c0.003,0,0.005,0,0.008,0
		c10.148,0,18.715-6.922,21.828-17.637c0.063-0.217,0.118-0.436,0.168-0.657l11.402-51.687c8.202,3.623,16.058,7.558,23.5,11.805
		c43.043,24.566,66.736,55.987,66.709,88.482L491.311,292.168z M160.206,174.542l-14.038,63.67
		c-0.578,1.783-1.447,2.457-1.879,2.457c-0.43,0-1.295-0.671-1.871-2.452l-12.038-54.57L160.206,174.542z M381.623,183.646
		l-12.037,54.565c-0.579,1.784-1.447,2.457-1.879,2.457c-0.43,0-1.296-0.671-1.871-2.452l-14.047-63.674L381.623,183.646z"/>
	<path style="fill:#231F20;" d="M378.225,302.004H241.692c-5.713,0-10.343,4.631-10.343,10.343c0,5.713,4.631,10.343,10.343,10.343
		h136.533c5.712,0,10.343-4.631,10.343-10.343C388.569,306.635,383.937,302.004,378.225,302.004z"/>
	<path style="fill:#231F20;" d="M197.991,302.004h-1.034c-5.713,0-10.343,4.631-10.343,10.343c0,5.713,4.631,10.343,10.343,10.343
		h1.034c5.713,0,10.343-4.631,10.343-10.343C208.334,306.635,203.703,302.004,197.991,302.004z"/>
</g>
<g>
</g>
<g>
</g>
<g>
</g>
<g>
</g>
<g>
</g>
<g>
</g>
<g>
</g>
<g>
</g>
<g>
</g>
<g>
</g>
<g>
</g>
<g>
</g>
<g>
</g>
<g>
</g>
<g>
</g>
</svg>
