<?xml version="1.0" encoding="iso-8859-1"?>
<!-- Generator: Adobe Illustrator 19.0.0, SVG Export Plug-In . SVG Version: 6.00 Build 0)  -->
<svg version="1.1" id="Layer_1" xmlns="http://www.w3.org/2000/svg" xmlns:xlink="http://www.w3.org/1999/xlink" x="0px" y="0px"
	 viewBox="0 0 512 512" style="enable-background:new 0 0 512 512;" xml:space="preserve">
<path style="fill:#EFEFEF;" d="M500.495,139.944c0-68.063-76.332-120.267-76.332-120.267s-76.332,52.204-76.332,120.267
	c0,0.676,0.009,1.356,0.026,2.041c-30.356-4.397-61.104-6.626-91.859-6.626c-30.756,0-61.502,2.228-91.859,6.626
	c0.017-0.683,0.026-1.364,0.026-2.041c0-68.063-76.332-120.267-76.332-120.267S11.505,71.88,11.505,139.944
	c0,35.979,24.895,82.311,58.397,95.119c3.863,41.979,7.729,84.454,11.576,127.375c5.851,60.183,60.492,112.549,130.744,128.94
	c22.386,5.223,43.779-11.881,43.779-34.867v-0.002c0,22.987,21.393,40.091,43.778,34.869c28.096-6.554,53.695-18.862,74.675-35.133
	c31.476-24.398,52.558-57.693,56.07-93.805c3.848-42.914,7.713-85.392,11.576-127.375
	C475.601,222.254,500.495,175.922,500.495,139.944z"/>
<ellipse style="fill:#FBA026;" cx="258.432" cy="381.475" rx="49.505" ry="32.386"/>
<g>
	<path style="fill:#231F20;" d="M430.658,10.18c-3.915-2.677-9.074-2.677-12.989,0c-3.152,2.156-73.591,51.085-80.754,118.719
		c-26.826-3.351-53.985-5.046-80.914-5.046s-54.089,1.696-80.914,5.046C167.922,61.265,97.483,12.336,94.331,10.18
		c-3.915-2.677-9.074-2.677-12.989,0C78.021,12.452,0,66.652,0,139.944c0,36.711,23.454,84.833,59.062,102.877
		c3.806,41.399,7.488,81.955,10.965,120.731c6.237,64.139,63.634,121.31,139.579,139.03c3.579,0.835,7.189,1.246,10.772,1.246
		c10.5,0,20.756-3.529,29.211-10.238c2.349-1.864,4.491-3.92,6.413-6.134c1.92,2.214,4.062,4.267,6.41,6.131
		c11.339,8.998,25.911,12.277,39.98,8.993c29.087-6.786,56.445-19.665,79.109-37.244c35.272-27.341,56.748-63.489,60.479-101.87
		c3.485-38.865,7.169-79.421,10.957-120.645C488.546,224.775,512,176.653,512,139.944C512,66.652,433.979,12.452,430.658,10.18z
		 M258.428,402.358c-22.391,0-37.994-11.003-37.994-20.878s15.604-20.878,37.994-20.878c22.391,0,37.996,11.003,37.996,20.878
		S280.82,402.358,258.428,402.358z M437.99,224.317c-4.097,1.566-6.945,5.324-7.348,9.692
		c-4.007,43.549-7.904,86.413-11.572,127.316c-3.104,31.926-21.453,62.406-51.669,85.828
		c-20.068,15.564-44.355,26.982-70.238,33.021c-7.19,1.679-14.644-0.003-20.45-4.61c-5.852-4.644-9.208-11.589-9.208-19.053
		c0,0,0,0,0-0.001c0-0.486,0-31.608,0-31.608c29.755-3.066,51.929-21.034,51.929-43.42c0-24.61-26.797-43.887-61.005-43.887
		s-61.004,19.277-61.004,43.887c0,21.148,19.796,38.347,47.072,42.77c0,0,0,31.774,0,32.259c0,0,0-0.001,0,0.001
		c0,7.465-3.356,14.411-9.21,19.055c-5.806,4.608-13.262,6.287-20.451,4.61c-66.483-15.515-116.612-64.388-121.9-118.766
		c-3.657-40.797-7.553-83.661-11.578-127.403c-0.403-4.367-3.251-8.126-7.348-9.692c-29.19-11.161-51.001-53.75-51.001-84.374
		c0-49.957,47.235-91.968,64.827-105.88c17.603,13.921,64.827,55.929,64.827,105.88c0,0.579-0.008,1.162-0.023,1.748
		c-0.086,3.389,1.326,6.644,3.861,8.895c2.535,2.251,5.935,3.27,9.289,2.783c29.807-4.318,60.157-6.507,90.21-6.507
		c30.052,0,60.402,2.189,90.21,6.507c3.355,0.489,6.754-0.532,9.289-2.783c2.536-2.251,3.948-5.506,3.861-8.895
		c-0.015-0.586-0.023-1.168-0.023-1.748c0-49.965,47.252-91.984,64.837-105.889c17.6,13.875,64.816,55.773,64.816,105.889
		C488.99,170.567,467.18,213.156,437.99,224.317z"/>
	<circle style="fill:#231F20;" cx="181.166" cy="289.413" r="11.505"/>
	<circle style="fill:#231F20;" cx="329.209" cy="289.413" r="11.505"/>
	<path style="fill:#231F20;" d="M411.445,163.417c-5.294,3.433-6.838,10.499-3.443,15.832c2.193,3.445,5.913,5.327,9.715,5.327
		c2.115,0,4.254-0.582,6.169-1.803c0.449-0.286,0.909-0.605,1.377-0.958c5.076-3.823,6.088-11.034,2.266-16.11
		C423.712,160.639,416.517,159.62,411.445,163.417z"/>
	<path style="fill:#231F20;" d="M433.879,107.467c-3.439-5.342-10.558-6.884-15.902-3.446c-5.343,3.44-6.884,10.559-3.446,15.902
		c3.221,5.002,5.492,9.613,6.751,13.706c1.521,4.947,6.073,8.126,10.993,8.126c1.119,0,2.26-0.165,3.385-0.511
		c6.073-1.867,9.483-8.304,7.615-14.378C441.4,120.765,438.238,114.238,433.879,107.467z"/>
	<path style="fill:#231F20;" d="M100.557,163.418c-3.459-2.656-10.931-15.915-10.931-23.474c0-4.884,2.891-12.184,7.931-20.029
		c3.434-5.345,1.886-12.463-3.459-15.898c-5.346-3.434-12.463-1.886-15.898,3.459c-7.686,11.962-11.583,22.886-11.583,32.468
		c0,15.414,12.02,36.79,21.495,42.828c1.917,1.222,4.057,1.804,6.172,1.804c3.8,0,7.52-1.881,9.712-5.323
		C107.395,173.921,105.851,166.853,100.557,163.418z"/>
</g>
<g>
</g>
<g>
</g>
<g>
</g>
<g>
</g>
<g>
</g>
<g>
</g>
<g>
</g>
<g>
</g>
<g>
</g>
<g>
</g>
<g>
</g>
<g>
</g>
<g>
</g>
<g>
</g>
<g>
</g>
</svg>
