<?xml version="1.0" encoding="iso-8859-1"?>
<!-- Generator: Adobe Illustrator 16.0.0, SVG Export Plug-In . SVG Version: 6.00 Build 0)  -->
<!DOCTYPE svg PUBLIC "-//W3C//DTD SVG 1.1//EN" "http://www.w3.org/Graphics/SVG/1.1/DTD/svg11.dtd">
<svg xmlns="http://www.w3.org/2000/svg" xmlns:xlink="http://www.w3.org/1999/xlink" version="1.1" id="Capa_1" x="0px" y="0px" width="512px" height="512px" viewBox="0 0 106.048 106.048" style="enable-background:new 0 0 106.048 106.048;" xml:space="preserve">
<g>
	<path d="M84.838,0H21.209C9.543,0,0,9.543,0,21.209v63.629c0,11.666,9.543,21.21,21.209,21.21h63.628   c11.667,0,21.21-9.544,21.21-21.21V21.209C106.048,9.543,96.505,0,84.838,0z M58.42,67.719l-4.133,2.077   c-2.017-0.306-3.099-1.155-4.132-2.077v-4.132l6.203-2.071L58.42,67.719z M41.873,47.048c0.359-2.413,0.605-3.638,2.074-4.137   c1.033,0.403,1.043-0.35,2.074,0c2.12,0.662,3.892,2.148,4.13,2.068l0.466,0.06c1.3-0.43,3.019,0.072,3.671,2.009   c0.56,1.707,0.326,2.302,0,4.135c-0.342,1.831-1.107,3.555-2.073,4.14c-0.415,0.135-1.442,2.957-4.138,4.133h-2.056l-2.074-2.066   c-0.813-0.823-1.851-1.414-2.074-2.066C41.067,52.887,41.523,49.472,41.873,47.048z M37.738,53.251   c0.471,1.362,1.559,1.548,0,2.071l-4.132,2.066l-4.129-4.132c-0.552-1.616,0.127-2.656,2.068-4.135l4.135,2.061   C36.18,51.814,37.578,52.775,37.738,53.251z M27.402,38.771c0.85-0.738,1.341-1.831,2.074-2.069c1.393-0.461,2.884-0.608,4.129,0   c1.258,0.632,1.745,1.103,2.074,2.069c0.404,1.214-0.36,2.201-2.074,4.134l-6.204,2.069V38.771z M21.209,100.745   c-8.769,0-15.907-7.136-15.907-15.907V23.866c1.326-0.016,2.833,0.06,3.728,0.435l5.505,1.056l4.595,3.086   c1.264,9.797-0.324,15.614,2.074,22.739c0.375,1.157,2.91,4.715,4.125,6.206l0.303,5.8c9.072,9.595,15.583,9.378,16.717,9.978   l7.801,4.899c1.159,1.604,3.096,4.701,4.137,6.203c1.036,1.522,1.129,2.651,2.066,4.138c2.19,2.097,4.044,5.307,4.137,6.197   c0.068,0.633,3.786,3.708,6.308,6.142H21.209z M74.969,82.197l-8.279,2.071c-0.316-0.715-1.549-2.009-4.133-4.132   c-2.443-2.195-4.085-3.998-4.137-4.138c-0.575-1.755,0.776-5.214,2.076-8.27c1.33-3.2,2.216-4.516,4.127-6.203h2.071   c4.044-1.356,5.515-0.989,8.274,2.071c1.688,1.905,2.476,5.354,4.132,10.335C79.308,74.544,75.859,81.907,74.969,82.197z" fill="#333333"/>
</g>
<g>
</g>
<g>
</g>
<g>
</g>
<g>
</g>
<g>
</g>
<g>
</g>
<g>
</g>
<g>
</g>
<g>
</g>
<g>
</g>
<g>
</g>
<g>
</g>
<g>
</g>
<g>
</g>
<g>
</g>
</svg>
