<?xml version="1.0" encoding="iso-8859-1"?>
<!-- Generator: Adobe Illustrator 19.0.0, SVG Export Plug-In . SVG Version: 6.00 Build 0)  -->
<svg xmlns="http://www.w3.org/2000/svg" xmlns:xlink="http://www.w3.org/1999/xlink" version="1.1" id="Layer_1" x="0px" y="0px" viewBox="0 0 512 512" style="enable-background:new 0 0 512 512;" xml:space="preserve" width="512px" height="512px">
<g>
	<g>
		<path d="M233.058,256.568c-0.939-5.686-6.296-9.535-12-8.594c-43.033,7.116-81.031,27.617-104.251,56.245    c-3.63,4.477-2.945,11.049,1.532,14.68c1.934,1.569,4.258,2.332,6.568,2.332c3.038,0,6.049-1.32,8.112-3.863    c20.049-24.719,53.378-42.506,91.446-48.8C230.151,267.627,233.998,262.255,233.058,256.568z" fill="#333333"/>
	</g>
</g>
<g>
	<g>
		<path d="M255.998,245.132h-0.196c-5.763,0-10.436,4.672-10.436,10.436c0,5.764,4.673,10.437,10.436,10.437h0.196    c5.763,0,10.437-4.672,10.437-10.437C266.434,249.805,261.761,245.132,255.998,245.132z" fill="#333333"/>
	</g>
</g>
<g>
	<g>
		<path d="M377.681,324.449h-0.196c-5.763,0-10.437,4.672-10.437,10.436s4.673,10.437,10.437,10.437h0.196    c5.763,0,10.437-4.672,10.437-10.437S383.444,324.449,377.681,324.449z" fill="#333333"/>
	</g>
</g>
<g>
	<g>
		<path d="M352.71,277.833h-0.196c-5.763,0-10.436,4.672-10.436,10.436s4.673,10.437,10.436,10.437h0.196    c5.763,0,10.436-4.672,10.436-10.437S358.473,277.833,352.71,277.833z" fill="#333333"/>
	</g>
</g>
<g>
	<g>
		<path d="M315.486,315.057h-0.196c-5.763,0-10.437,4.672-10.437,10.437s4.673,10.436,10.437,10.436h0.196    c5.763,0,10.437-4.672,10.437-10.436S321.249,315.057,315.486,315.057z" fill="#333333"/>
	</g>
</g>
<g>
	<g>
		<path d="M491.051,315.202c-0.262-0.167-0.53-0.322-0.806-0.465c-25.286-13.146-58.647-47.543-60.98-49.966    c-5.172-5.842-10.818-11.361-16.861-16.556c22.219-39.485,32.211-82.04,28.216-120.755c-0.24-3.267-0.956-6.75-1.782-10.771    c-2.549-12.409-5.713-27.816,2.936-44.828c12.74-17.905,10.67-42.925-4.972-58.566C421.159-2.35,396.139-4.419,378.234,8.322    c-17.011,8.646-32.417,5.483-44.827,2.935c-4.022-0.827-7.506-1.543-10.774-1.782c-29.037-2.996-60.685,1.912-91.531,14.197    c-31.555,12.569-61.734,32.711-87.275,58.251c-49.27,49.271-76.544,113.572-72.991,172.044c0.03,1.567,0.212,12.929-0.492,27.309    c-6.72,10.079-15.38,21.698-32.141,27.16c-21.669,3.653-37.898,22.808-37.898,44.929c0,22.121,16.23,41.276,37.898,44.929    c18.144,5.914,26.801,19.046,33.773,29.622c2.259,3.427,4.217,6.397,6.358,8.876c18.416,22.653,44.263,41.561,74.762,54.685    C184.297,504.903,219.879,512,256,512c69.683,0,134.434-26.178,173.267-70.04c2.333-2.422,35.695-36.82,60.98-49.966    c0.277-0.143,0.544-0.298,0.806-0.465c12.926-8.259,20.641-22.526,20.641-38.163S503.975,323.461,491.051,315.202z     M158.585,96.682c46.548-46.548,108.649-71.998,162.057-66.429c0.127,0.014,0.255,0.024,0.382,0.033    c1.915,0.129,4.959,0.755,8.182,1.416c13.279,2.726,35.503,7.292,59.368-5.231c0.479-0.252,0.936-0.54,1.37-0.861    c9.705-7.203,23.502-6.153,32.095,2.441c8.593,8.593,9.643,22.392,2.441,32.095c-0.323,0.434-0.61,0.892-0.861,1.37    c-12.522,23.865-7.957,46.091-5.23,59.369c0.662,3.222,1.287,6.266,1.415,8.181c0.009,0.127,0.02,0.255,0.032,0.381    c3.511,33.647-5.052,70.875-24.18,105.909c-37.867-25.889-87.375-40.628-139.661-40.628c-36.12,0-71.703,7.097-102.904,20.522    c-23.705,10.201-44.582,23.908-61.361,40.141c-0.015-1.243-0.031-1.976-0.034-2.1c-0.003-0.134-0.009-0.268-0.018-0.402    C88.409,200.244,113.421,141.848,158.585,96.682z M480.157,373.714c-29.091,15.319-64.618,52.391-66.123,53.969    c-0.092,0.097-0.183,0.195-0.271,0.295c-34.914,39.542-93.893,63.148-157.765,63.148c-65.828,0-127.738-25.911-161.565-67.62    c-0.08-0.099-0.163-0.196-0.246-0.293c-1.263-1.445-2.973-4.04-4.784-6.786c-7.46-11.318-19.948-30.261-45.678-38.281    c-0.516-0.161-1.044-0.282-1.578-0.36c-11.955-1.769-20.97-12.268-20.97-24.421c0-12.153,9.015-22.652,20.97-24.421    c0.534-0.079,1.062-0.199,1.578-0.36c25.729-8.02,38.217-26.963,45.678-38.281c1.811-2.747,3.521-5.341,4.784-6.786    c0.083-0.096,0.166-0.194,0.246-0.293c33.828-41.709,95.736-67.62,161.565-67.62c63.873,0,122.851,23.606,157.765,63.147    c0.089,0.1,0.18,0.198,0.271,0.295c1.505,1.579,37.032,38.652,66.123,53.969c6.782,4.495,10.662,11.887,10.662,20.349    C490.819,361.826,486.939,369.219,480.157,373.714z" fill="#333333"/>
	</g>
</g>
<g>
	<g>
		<path d="M271.652,72.234h-0.196c-5.763,0-10.437,4.672-10.437,10.437s4.673,10.436,10.437,10.436h0.196    c5.763,0,10.437-4.672,10.437-10.436S277.415,72.234,271.652,72.234z" fill="#333333"/>
	</g>
</g>
<g>
	<g>
		<path d="M296.624,118.85h-0.196c-5.763,0-10.437,4.672-10.437,10.437s4.673,10.437,10.437,10.437h0.196    c5.763,0,10.437-4.672,10.437-10.437S302.387,118.85,296.624,118.85z" fill="#333333"/>
	</g>
</g>
<g>
	<g>
		<path d="M333.849,81.627c-0.027,0-0.056,0-0.083,0h-0.114c-5.763,0-10.436,4.672-10.436,10.436    c0,5.764,4.673,10.437,10.436,10.437h0.277c5.764-0.045,10.4-4.755,10.355-10.518C344.238,86.245,339.574,81.627,333.849,81.627z" fill="#333333"/>
	</g>
</g>
<g>
</g>
<g>
</g>
<g>
</g>
<g>
</g>
<g>
</g>
<g>
</g>
<g>
</g>
<g>
</g>
<g>
</g>
<g>
</g>
<g>
</g>
<g>
</g>
<g>
</g>
<g>
</g>
<g>
</g>
</svg>
