<?xml version="1.0" encoding="iso-8859-1"?>
<!-- Generator: Adobe Illustrator 18.0.0, SVG Export Plug-In . SVG Version: 6.00 Build 0)  -->
<!DOCTYPE svg PUBLIC "-//W3C//DTD SVG 1.1//EN" "http://www.w3.org/Graphics/SVG/1.1/DTD/svg11.dtd">
<svg xmlns="http://www.w3.org/2000/svg" xmlns:xlink="http://www.w3.org/1999/xlink" version="1.1" id="Capa_1" x="0px" y="0px" viewBox="0 0 297.316 297.316" style="enable-background:new 0 0 297.316 297.316;" xml:space="preserve" width="512px" height="512px">
<g>
	<path d="M132.155,49.815c2.63,0,5.21-1.07,7.069-2.931c1.86-1.859,2.931-4.439,2.931-7.069c0-2.63-1.07-5.21-2.931-7.07   c-1.85-1.86-4.43-2.93-7.069-2.93c-2.63,0-5.21,1.069-7.07,2.93c-1.86,1.86-2.93,4.44-2.93,7.07c0,2.63,1.069,5.21,2.93,7.069   C126.945,48.745,129.525,49.815,132.155,49.815z" fill="#333333"/>
	<path d="M165.155,49.815c2.64,0,5.21-1.07,7.069-2.931c1.87-1.859,2.931-4.439,2.931-7.069c0-2.63-1.061-5.21-2.931-7.07   c-1.859-1.86-4.43-2.93-7.069-2.93c-2.63,0-5.21,1.069-7.07,2.93c-1.86,1.86-2.93,4.44-2.93,7.07c0,2.63,1.069,5.21,2.93,7.069   C159.945,48.745,162.525,49.815,165.155,49.815z" fill="#333333"/>
	<path d="M262.482,259.284L241.178,88.852l0.004-0.005c5.624-8.075,8.477-16.729,8.477-25.722c0-35.397-44.364-63.125-101-63.125   s-101,27.728-101,63.125c0,8.991,2.852,17.645,8.476,25.721c0.002,0.002,0.003,0.004,0.005,0.006L34.834,259.284   c-1.252,10.014,1.587,19.524,7.992,26.78c6.405,7.256,15.491,11.252,25.582,11.252h160.5c10.091,0,19.177-3.996,25.582-11.252   C260.896,278.809,263.734,269.298,262.482,259.284z M148.658,20c43.906,0,81,19.749,81,43.125c0,3.358-0.797,6.709-2.375,10.006   H70.033c-1.578-3.297-2.375-6.647-2.375-10.006C67.658,39.749,104.752,20,148.658,20z M239.496,272.828   c-2.555,2.895-6.314,4.488-10.588,4.488h-160.5c-4.273,0-8.033-1.594-10.588-4.488c-2.556-2.893-3.671-6.823-3.141-11.064   L75.759,93.131h145.799l21.079,168.634C243.167,266.005,242.052,269.935,239.496,272.828z" fill="#333333"/>
	<path d="M99.158,120.564c-5.523,0-10,4.478-10,10v115.501c0,5.523,4.477,10,10,10c5.522,0,10-4.477,10-10V130.564   C109.158,125.042,104.681,120.564,99.158,120.564z" fill="#333333"/>
	<path d="M148.658,120.564c-5.523,0-10,4.478-10,10v115.501c0,5.523,4.477,10,10,10c5.522,0,10-4.477,10-10V130.564   C158.658,125.042,154.181,120.564,148.658,120.564z" fill="#333333"/>
	<path d="M198.158,120.564c-5.523,0-10,4.478-10,10v115.501c0,5.523,4.477,10,10,10c5.522,0,10-4.477,10-10V130.564   C208.158,125.042,203.681,120.564,198.158,120.564z" fill="#333333"/>
</g>
<g>
</g>
<g>
</g>
<g>
</g>
<g>
</g>
<g>
</g>
<g>
</g>
<g>
</g>
<g>
</g>
<g>
</g>
<g>
</g>
<g>
</g>
<g>
</g>
<g>
</g>
<g>
</g>
<g>
</g>
</svg>
