<?xml version="1.0" encoding="iso-8859-1"?>
<!-- Generator: Adobe Illustrator 18.0.0, SVG Export Plug-In . SVG Version: 6.00 Build 0)  -->
<!DOCTYPE svg PUBLIC "-//W3C//DTD SVG 1.1//EN" "http://www.w3.org/Graphics/SVG/1.1/DTD/svg11.dtd">
<svg xmlns="http://www.w3.org/2000/svg" xmlns:xlink="http://www.w3.org/1999/xlink" version="1.1" id="Capa_1" x="0px" y="0px" viewBox="0 0 297 297" style="enable-background:new 0 0 297 297;" xml:space="preserve" width="512px" height="512px">
<g>
	<path d="M171.74,134.207c-18.44,0-33.446,15.188-33.446,33.858c0,18.673,15.006,33.86,33.446,33.86   c18.443,0,33.445-15.188,33.445-33.86C205.186,149.395,190.184,134.207,171.74,134.207z M171.74,181.516   c-7.188,0-13.036-6.033-13.036-13.45c0-7.414,5.848-13.447,13.036-13.447c7.189,0,13.035,6.033,13.035,13.447   C184.775,175.482,178.929,181.516,171.74,181.516z" fill="#333333"/>
	<path d="M102.402,82.34c-18.447,0-33.449,15.189-33.449,33.864c0,18.669,15.002,33.856,33.449,33.856   c18.442,0,33.444-15.188,33.444-33.856C135.847,97.529,120.845,82.34,102.402,82.34z M102.402,129.65   c-7.19,0-13.039-6.032-13.039-13.446c0-7.418,5.849-13.453,13.039-13.453c7.187,0,13.033,6.035,13.033,13.453   C115.435,123.618,109.589,129.65,102.402,129.65z" fill="#333333"/>
	<path d="M234.931,95.074c-15.157,0-27.492,12.332-27.492,27.494c0,15.161,12.335,27.492,27.492,27.492   c15.158,0,27.494-12.331,27.494-27.492C262.425,107.406,250.089,95.074,234.931,95.074z M234.931,129.65   c-3.901,0-7.076-3.178-7.076-7.082c0-3.905,3.175-7.082,7.076-7.082c3.903,0,7.08,3.177,7.08,7.082   C242.011,126.473,238.834,129.65,234.931,129.65z" fill="#333333"/>
	<path d="M59.446,159.512c-15.159,0-27.493,12.334-27.493,27.496c0,15.158,12.334,27.494,27.493,27.494   c15.157,0,27.492-12.336,27.492-27.494C86.938,171.846,74.604,159.512,59.446,159.512z M59.446,194.087   c-3.903,0-7.079-3.177-7.079-7.079c0-3.907,3.176-7.085,7.079-7.085c3.901,0,7.076,3.178,7.076,7.085   C66.522,190.91,63.348,194.087,59.446,194.087z" fill="#333333"/>
	<path d="M263.296,49.967c-3.18,0-6.433,0.411-9.674,1.219l-7.756,1.94c-7.271,1.82-17.559,2.861-28.222,2.861   c-10.658,0-20.944-1.041-28.217-2.861l-7.76-1.94c-8.949-2.236-20.73-3.471-33.169-3.471c-12.439,0-24.22,1.234-33.169,3.471   l-7.76,1.94c-7.271,1.82-17.558,2.861-28.216,2.861c-10.663,0-20.95-1.041-28.222-2.861l-7.755-1.94   c-3.241-0.808-6.494-1.219-9.674-1.219C14.176,49.967,0,64.722,0,85.053v126.895c0,9.76,3.395,18.669,9.557,25.08   c6.2,6.455,14.778,10.007,24.149,10.006c3.181,0,6.433-0.412,9.673-1.219l7.755-1.941c7.271-1.817,17.559-2.861,28.222-2.861   c10.658,0,20.944,1.044,28.216,2.861l7.76,1.941c8.949,2.235,20.73,3.471,33.169,3.471c12.439,0,24.22-1.235,33.168-3.471   l7.762-1.941c7.271-1.817,17.558-2.861,28.216-2.861c10.663,0,20.95,1.044,28.222,2.861l7.756,1.941   c3.241,0.808,6.494,1.219,9.674,1.219c19.528,0,33.704-14.755,33.704-35.086V85.053C297,64.722,282.824,49.967,263.296,49.967z    M217.186,220.604c2.083-4.573,6.579-7.754,11.788-7.754c5.82,0,10.756,3.953,12.425,9.386c-7.158-1.065-15.302-1.634-23.755-1.634   C217.493,220.602,217.338,220.604,217.186,220.604z M262.425,226.589c0-18.669-15.005-34.151-33.45-34.151   c-16.988,0-31.054,12.896-33.162,29.525c-4.108,0.549-7.927,1.257-11.335,2.107l-7.761,1.939   c-7.273,1.821-17.555,2.861-28.218,2.861s-20.945-1.04-28.218-2.861l-7.759-1.939c-8.951-2.237-20.733-3.469-33.168-3.469   c-12.439,0-24.222,1.231-33.173,3.469l-7.759,1.939c-1.617,0.408-3.208,0.609-4.72,0.609c-3.818,0.001-7.08-1.289-9.43-3.735   c-2.526-2.628-3.862-6.41-3.862-10.936V85.053c0-8.914,5.218-14.671,13.293-14.671c1.511,0,3.101,0.201,4.719,0.609l7.759,1.939   c8.951,2.236,20.733,3.469,33.173,3.469c12.435,0,24.217-1.232,33.168-3.469l7.759-1.939c7.272-1.819,17.555-2.861,28.218-2.861   s20.945,1.042,28.219,2.861l7.759,1.939c8.951,2.236,20.733,3.469,33.168,3.469c12.439,0,24.222-1.232,33.173-3.469l7.759-1.939   c1.619-0.408,3.209-0.609,4.72-0.609c8.075,0,13.293,5.757,13.293,14.671v126.895c0,8.914-5.218,14.671-13.293,14.671   C263.004,226.618,262.722,226.605,262.425,226.589z" fill="#333333"/>
</g>
<g>
</g>
<g>
</g>
<g>
</g>
<g>
</g>
<g>
</g>
<g>
</g>
<g>
</g>
<g>
</g>
<g>
</g>
<g>
</g>
<g>
</g>
<g>
</g>
<g>
</g>
<g>
</g>
<g>
</g>
</svg>
