<?xml version="1.0" encoding="iso-8859-1"?>
<!-- Generator: Adobe Illustrator 19.0.0, SVG Export Plug-In . SVG Version: 6.00 Build 0)  -->
<svg xmlns="http://www.w3.org/2000/svg" xmlns:xlink="http://www.w3.org/1999/xlink" version="1.1" id="Layer_1" x="0px" y="0px" viewBox="0 0 511.999 511.999" style="enable-background:new 0 0 511.999 511.999;" xml:space="preserve" width="512px" height="512px">
<g>
	<g>
		<path d="M489.031,22.952C474.027,7.947,452.179,0.016,425.855,0.016c-54.038,0-120.186,32.699-150.484,62.997    c-40.965,40.965-46.835,103.907-17.671,151.209L8.297,463.625c-11.063,11.061-11.063,28.998,0,40.061    c5.531,5.531,12.781,8.298,20.031,8.298c7.25,0,14.5-2.767,20.029-8.298l249.377-249.377    c19.18,11.877,41.313,18.254,64.438,18.254c32.788,0,63.614-12.768,86.798-35.953C492.529,193.051,542.028,75.947,489.031,22.952z     M449.444,121.815c-8.347,28.482-25.015,59.214-40.535,74.734c-12.483,12.483-29.081,19.359-46.737,19.359    s-34.254-6.876-46.739-19.359c-12.483-12.485-19.359-29.083-19.359-46.739s6.876-34.254,19.359-46.739    c21.905-21.905,73.78-46.402,110.423-46.402c10.817,0,19.025,2.253,23.115,6.342C457.287,71.329,457.474,94.411,449.444,121.815z" fill="#333333"/>
	</g>
</g>
<g>
</g>
<g>
</g>
<g>
</g>
<g>
</g>
<g>
</g>
<g>
</g>
<g>
</g>
<g>
</g>
<g>
</g>
<g>
</g>
<g>
</g>
<g>
</g>
<g>
</g>
<g>
</g>
<g>
</g>
</svg>
