<svg id="Capa_1" data-name="Capa 1" xmlns="http://www.w3.org/2000/svg" viewBox="0 0 542 542"><defs><style>.cls-1{fill:#fff;}.cls-2{fill:#333;}</style></defs><title>star3</title><polygon class="cls-1" points="37 205 92 194 146 185 174 185 187 185 252 45 293 45 349 178 512 205 512 238 400 326 435 473 405 505 289 427 234 443 140 505 110.11 475.18 0 542 542 542 542 0 0 0 0 542 117 471 142 331 35 247 37 205"/><path class="cls-2" d="M39.17,167.37A41.22,41.22,0,0,0,2.34,195.64a40.9,40.9,0,0,0,12.42,45.18l96.51,79.71a6.93,6.93,0,0,1,2.3,6.89L84.14,447.82a40.69,40.69,0,0,0,6.57,35.58,41.61,41.61,0,0,0,32.87,16.38,39.64,39.64,0,0,0,22-6.68l105.48-65.63a6.88,6.88,0,0,1,7.2,0L364.8,492.89A39.88,39.88,0,0,0,387,499.78a40.92,40.92,0,0,0,31.61-15.44,42.29,42.29,0,0,0,8-36.1L397.14,327.52a7,7,0,0,1,2.3-7l98-79.92a41.87,41.87,0,0,0-24.31-73.45l-124.89-9a6.69,6.69,0,0,1-5.84-4.28L294.79,38.1a41.16,41.16,0,0,0-38.71-25.88c-17.32,0-32,9.91-38.71,26L169.69,154.12a7,7,0,0,1-5.84,4.28m317.28,62.5-97.76,79.82a32.51,32.51,0,0,0-11,32.87l29.53,120.51a16.48,16.48,0,0,1-3.13,14.29,15.36,15.36,0,0,1-11.69,5.95,14.55,14.55,0,0,1-8.35-2.82L271.84,405.77a32.47,32.47,0,0,0-17-4.8,32,32,0,0,0-17.11,4.9l-105.9,65.84C125,476.2,116,474.22,111.16,468c-2-2.61-4.07-7.09-2.19-13.67L138.5,333.47a32.59,32.59,0,0,0-10.85-32.66L31.35,221.2a15.82,15.82,0,0,1-4.7-17.42c.83-2.4,4.28-10.43,14.29-11l124.89-9a32.32,32.32,0,0,0,27.65-20L241.16,47.9a16.21,16.21,0,0,1,30,0l47.68,115.92a32.32,32.32,0,0,0,27.65,20l125.1,9.08c9.81.52,13.25,8.56,14.09,11C486.35,206.08,488.44,214.53,481.13,220.89Z" transform="translate(15 15)"/></svg>