<?xml version="1.0" encoding="utf-8"?>
<!DOCTYPE svg PUBLIC "-//W3C//DTD SVG 1.1//EN" "http://www.w3.org/Graphics/SVG/1.1/DTD/svg11.dtd">
<svg xmlns="http://www.w3.org/2000/svg" xmlns:xlink="http://www.w3.org/1999/xlink" version="1.1" viewBox="0 0 512 512" enable-background="new 0 0 512 512" width="512px" height="512px">
  <g>
    <path d="m342.8,239.1l-206.3-206.6c-28.7-28.7-75.3-28.7-104,0s-28.7,75.4 0,104.2l206.7,207c-8.2,42.9 5.1,87.3 36.3,118.6 51.5,51.6 135.3,51.6 186.8,0s51.5-135.5 0-187.1c-31.5-31.5-76.3-44.8-119.5-36.1zm90.6,194.2c-35.5,35.6-93.3,35.6-128.8,0-23.5-23.6-32.4-58.1-23-90.2 2.1-7.2 0.1-15-5.2-20.3l-59.2-59.3 15.5-15.5c8-8 8-20.9 0-28.9-8-8-20.9-8-28.9,0l-15.5,15.5-14.6-14.6 15.5-15.5c8-8 8-20.9 0-28.9-8-8-20.9-8-28.9,0l-15.5,15.4-14.6-14.6 15.5-15.5c8-8 8-20.9 0-28.9-8-8-20.9-8-28.9,0l-15.5,15.5-39.7-39.8c-12.7-12.7-12.7-33.4 0-46.1s33.3-12.7 46,0l214.4,214.8c5.4,5.4 13.2,7.3 20.5,5.1 32.3-9.8 67.1-1.1 90.9,22.8 35.5,35.6 35.5,93.4 0,129z" fill="#fa7a5a"/>
  </g>
</svg>
