<?xml version="1.0" encoding="iso-8859-1"?>
<!-- Generator: Adobe Illustrator 19.0.0, SVG Export Plug-In . SVG Version: 6.00 Build 0)  -->
<svg version="1.1" id="Layer_1" xmlns="http://www.w3.org/2000/svg" xmlns:xlink="http://www.w3.org/1999/xlink" x="0px" y="0px"
	 viewBox="0 0 512 512" style="enable-background:new 0 0 512 512;" xml:space="preserve">
<rect x="129.32" y="10.557" style="fill:#38A891;" width="253.361" height="47.505"/>
<path style="fill:#EFEFEF;" d="M382.68,58.062H129.32l-49.54,74.311c-2.115,3.171-3.243,6.899-3.243,10.71v339.053
	c0,10.663,8.645,19.308,19.308,19.308h320.311c10.663,0,19.308-8.645,19.308-19.308V143.083c0-3.812-1.129-7.539-3.243-10.71
	L382.68,58.062z"/>
<g>
	<path style="fill:#F7862D;" d="M287.67,172.769c0,33.524-31.67,60.701-31.67,60.701s-31.67-27.177-31.67-60.701
		S256,112.068,256,112.068S287.67,139.245,287.67,172.769z"/>
	<path style="fill:#F7862D;" d="M324.403,311.322C295.37,328.084,256,314.246,256,314.246s7.701-41.016,36.733-57.778
		s68.403-2.923,68.403-2.923S353.436,294.559,324.403,311.322z"/>
	<path style="fill:#F7862D;" d="M187.597,311.322C216.63,328.084,256,314.246,256,314.246s-7.701-41.016-36.733-57.778
		s-68.403-2.923-68.403-2.923S158.564,294.559,187.597,311.322z"/>
	<path style="fill:#F7862D;" d="M324.403,418.578C295.37,435.34,256,421.502,256,421.502s7.701-41.016,36.733-57.778
		c29.032-16.762,68.403-2.923,68.403-2.923S353.436,401.817,324.403,418.578z"/>
	<path style="fill:#F7862D;" d="M187.597,418.578C216.63,435.34,256,421.502,256,421.502s-7.701-41.016-36.733-57.778
		c-29.032-16.762-68.403-2.923-68.403-2.923S158.564,401.817,187.597,418.578z"/>
</g>
<g>
	<path style="fill:#231F20;" d="M441.005,126.517l-47.768-71.65v-44.31C393.237,4.726,388.51,0,382.68,0H129.32
		c-5.83,0-10.557,4.726-10.557,10.557v44.31l-47.768,71.65c-3.281,4.922-5.015,10.651-5.015,16.567v339.052
		c0,16.467,13.396,29.865,29.865,29.865h320.311c16.468,0,29.865-13.397,29.865-29.865V143.083
		C446.021,137.167,444.286,131.439,441.005,126.517z M139.876,21.113h232.247v26.392H139.876V21.113z M424.907,482.135
		c0,4.825-3.926,8.752-8.752,8.752H95.844c-4.825,0-8.752-3.926-8.752-8.752V143.083c0-1.733,0.508-3.412,1.469-4.855l46.407-69.61
		H377.03l46.406,69.609c0.962,1.442,1.471,3.122,1.471,4.855V482.135z"/>
	<path style="fill:#231F20;" d="M145.181,110.391c1.8,1.2,3.835,1.776,5.848,1.776c3.411,0,6.757-1.65,8.793-4.7l0.704-1.056
		c3.235-4.851,1.926-11.405-2.925-14.64c-4.849-3.234-11.405-1.924-14.64,2.925l-0.704,1.056
		C139.021,100.601,140.33,107.156,145.181,110.391z"/>
	<path style="fill:#231F20;" d="M129.32,183.687v-21.029c0-6.176,1.81-12.155,5.235-17.293l3.548-5.322
		c3.234-4.851,1.923-11.405-2.927-14.64c-4.851-3.234-11.405-1.923-14.64,2.927l-3.548,5.323
		c-5.745,8.617-8.782,18.647-8.782,29.005v21.029c0,5.83,4.726,10.557,10.557,10.557C124.592,194.243,129.32,189.517,129.32,183.687
		z"/>
	<path style="fill:#231F20;" d="M289.761,330.162c12.779,0,27.09-2.29,39.92-9.697c26.812-15.48,37.486-47.713,40.696-60.066
		l12.521-7.229c5.049-2.915,6.78-9.371,3.864-14.42c-2.916-5.049-9.37-6.778-14.42-3.864l-12.522,7.23
		c-12.299-3.395-45.549-10.272-72.365,5.211c-8.496,4.905-15.367,11.494-20.899,18.598v-27.878
		c9.09-8.953,31.67-34.311,31.67-65.276s-22.58-56.322-31.67-65.276v-14.46c0-5.83-4.727-10.557-10.557-10.557
		c-5.829,0-10.557,4.726-10.557,10.557v14.46c-9.09,8.954-31.67,34.311-31.67,65.276s22.58,56.322,31.67,65.276v27.877
		c-5.532-7.104-12.403-13.692-20.898-18.598c-26.816-15.482-60.068-8.607-72.366-5.211l-12.521-7.229
		c-5.048-2.914-11.505-1.184-14.42,3.864c-2.916,5.049-1.186,11.505,3.864,14.42l12.521,7.229
		c3.211,12.352,13.884,44.585,40.696,60.066c12.833,7.409,27.14,9.697,39.921,9.697c8.781,0,16.839-1.08,23.204-2.322v45.34
		c-5.532-7.104-12.403-13.692-20.898-18.597c-26.816-15.483-60.068-8.607-72.366-5.212l-12.521-7.229
		c-5.049-2.914-11.505-1.184-14.42,3.864c-2.916,5.049-1.186,11.506,3.864,14.42l12.521,7.229
		c3.211,12.352,13.884,44.585,40.696,60.066c12.833,7.409,27.14,9.697,39.921,9.697c8.781,0,16.839-1.08,23.204-2.322v28.344
		c0,5.831,4.727,10.557,10.557,10.557s10.557-4.726,10.557-10.557v-28.344c6.365,1.243,14.423,2.322,23.205,2.322
		c12.779,0,27.09-2.29,39.92-9.697c26.812-15.48,37.486-47.713,40.696-60.066l12.521-7.229c5.049-2.915,6.78-9.371,3.864-14.42
		c-2.916-5.047-9.367-6.778-14.42-3.864l-12.522,7.229c-12.3-3.395-45.55-10.271-72.365,5.212
		c-8.496,4.905-15.367,11.493-20.899,18.598v-45.34C272.921,329.082,280.979,330.162,289.761,330.162z M298.012,265.61
		c16.566-9.563,38-7.154,50.137-4.593c-3.89,11.814-12.574,31.666-29.024,41.163c-16.566,9.563-37.997,7.155-50.137,4.593
		C272.877,294.958,281.563,275.108,298.012,265.61z M234.887,172.769c0-19.129,12.803-36.485,21.091-45.717
		c8.287,9.275,21.136,26.722,21.136,45.717c0,19.129-12.803,36.486-21.091,45.717C247.736,209.211,234.887,191.764,234.887,172.769z
		 M192.874,302.18c-16.566-9.564-25.196-29.331-29.047-41.124c12.177-2.54,33.712-4.944,50.16,4.553
		c16.566,9.564,25.196,29.331,29.047,41.124C230.858,309.272,209.324,311.677,192.874,302.18z M192.874,409.436
		c-16.58-9.573-25.21-29.366-29.056-41.155c12.142-2.566,33.595-4.984,50.17,4.586c16.566,9.564,25.196,29.33,29.047,41.124
		C230.858,416.528,209.324,418.932,192.874,409.436z M298.012,372.867c16.566-9.564,37.998-7.155,50.137-4.593
		c-3.89,11.814-12.574,31.666-29.024,41.163c-16.581,9.572-38.035,7.15-50.17,4.586
		C272.804,402.225,281.435,382.438,298.012,372.867z"/>
</g>
<g>
</g>
<g>
</g>
<g>
</g>
<g>
</g>
<g>
</g>
<g>
</g>
<g>
</g>
<g>
</g>
<g>
</g>
<g>
</g>
<g>
</g>
<g>
</g>
<g>
</g>
<g>
</g>
<g>
</g>
</svg>
